<svg xmlns="http://www.w3.org/2000/svg" xmlns:xlink="http://www.w3.org/1999/xlink" id="processonSvg1000" viewBox="75.0 77.0 705.5 651.5" width="705.5" height="651.5"><defs id="ProcessOnDefs1001"><marker id="ProcessOnMarker1024" markerUnits="userSpaceOnUse" orient="auto" markerWidth="16.23606797749979" markerHeight="10.550836550532098" viewBox="-1.0 -1.3763819204711736 16.23606797749979 10.550836550532098" refX="-1.0" refY="3.8990363547948754"><path id="ProcessOnPath1025" d="M12.0 3.8990363547948754L0.0 7.798072709589751V0.0Z" stroke="#323232" stroke-width="2.0" fill="#323232" transform="matrix(1.0,0.0,0.0,1.0,0.0,0.0)"/></marker><marker id="ProcessOnMarker1028" markerUnits="userSpaceOnUse" orient="auto" markerWidth="16.23606797749979" markerHeight="10.550836550532098" viewBox="-1.0 -1.3763819204711736 16.23606797749979 10.550836550532098" refX="-1.0" refY="3.8990363547948754"><path id="ProcessOnPath1029" d="M12.0 3.8990363547948754L0.0 7.798072709589751V0.0Z" stroke="#323232" stroke-width="2.0" fill="#323232" transform="matrix(1.0,0.0,0.0,1.0,0.0,0.0)"/></marker><marker id="ProcessOnMarker1037" markerUnits="userSpaceOnUse" orient="auto" markerWidth="16.23606797749979" markerHeight="10.550836550532098" viewBox="-1.0 -1.3763819204711736 16.23606797749979 10.550836550532098" refX="-1.0" refY="3.8990363547948754"><path id="ProcessOnPath1038" d="M12.0 3.8990363547948754L0.0 7.798072709589751V0.0Z" stroke="#323232" stroke-width="2.0" fill="#323232" transform="matrix(1.0,0.0,0.0,1.0,0.0,0.0)"/></marker><marker id="ProcessOnMarker1046" markerUnits="userSpaceOnUse" orient="auto" markerWidth="16.23606797749979" markerHeight="10.550836550532098" viewBox="-1.0 -1.3763819204711736 16.23606797749979 10.550836550532098" refX="-1.0" refY="3.8990363547948754"><path id="ProcessOnPath1047" d="M12.0 3.8990363547948754L0.0 7.798072709589751V0.0Z" stroke="#323232" stroke-width="2.0" fill="#323232" transform="matrix(1.0,0.0,0.0,1.0,0.0,0.0)"/></marker><marker id="ProcessOnMarker1057" markerUnits="userSpaceOnUse" orient="auto" markerWidth="16.23606797749979" markerHeight="10.550836550532098" viewBox="-1.0 -1.3763819204711736 16.23606797749979 10.550836550532098" refX="-1.0" refY="3.8990363547948754"><path id="ProcessOnPath1058" d="M12.0 3.8990363547948754L0.0 7.798072709589751V0.0Z" stroke="#323232" stroke-width="2.0" fill="#323232" transform="matrix(1.0,0.0,0.0,1.0,0.0,0.0)"/></marker><marker id="ProcessOnMarker1069" markerUnits="userSpaceOnUse" orient="auto" markerWidth="16.23606797749979" markerHeight="10.550836550532098" viewBox="-1.0 -1.3763819204711736 16.23606797749979 10.550836550532098" refX="-1.0" refY="3.8990363547948754"><path id="ProcessOnPath1070" d="M12.0 3.8990363547948754L0.0 7.798072709589751V0.0Z" stroke="#323232" stroke-width="2.0" fill="#323232" transform="matrix(1.0,0.0,0.0,1.0,0.0,0.0)"/></marker><marker id="ProcessOnMarker1080" markerUnits="userSpaceOnUse" orient="auto" markerWidth="16.23606797749979" markerHeight="10.550836550532098" viewBox="-1.0 -1.3763819204711736 16.23606797749979 10.550836550532098" refX="-1.0" refY="3.8990363547948754"><path id="ProcessOnPath1081" d="M12.0 3.8990363547948754L0.0 7.798072709589751V0.0Z" stroke="#323232" stroke-width="2.0" fill="#323232" transform="matrix(1.0,0.0,0.0,1.0,0.0,0.0)"/></marker><marker id="ProcessOnMarker1096" markerUnits="userSpaceOnUse" orient="auto" markerWidth="16.23606797749979" markerHeight="10.550836550532098" viewBox="-1.0 -1.3763819204711736 16.23606797749979 10.550836550532098" refX="-1.0" refY="3.8990363547948754"><path id="ProcessOnPath1097" d="M12.0 3.8990363547948754L0.0 7.798072709589751V0.0Z" stroke="#323232" stroke-width="2.0" fill="#323232" transform="matrix(1.0,0.0,0.0,1.0,0.0,0.0)"/></marker><marker id="ProcessOnMarker1100" markerUnits="userSpaceOnUse" orient="auto" markerWidth="16.23606797749979" markerHeight="10.550836550532098" viewBox="-1.0 -1.3763819204711736 16.23606797749979 10.550836550532098" refX="-1.0" refY="3.8990363547948754"><path id="ProcessOnPath1101" d="M12.0 3.8990363547948754L0.0 7.798072709589751V0.0Z" stroke="#323232" stroke-width="2.0" fill="#323232" transform="matrix(1.0,0.0,0.0,1.0,0.0,0.0)"/></marker><marker id="ProcessOnMarker1107" markerUnits="userSpaceOnUse" orient="auto" markerWidth="16.23606797749979" markerHeight="10.550836550532098" viewBox="-1.0 -1.3763819204711736 16.23606797749979 10.550836550532098" refX="-1.0" refY="3.8990363547948754"><path id="ProcessOnPath1108" d="M12.0 3.8990363547948754L0.0 7.798072709589751V0.0Z" stroke="#323232" stroke-width="2.0" fill="#323232" transform="matrix(1.0,0.0,0.0,1.0,0.0,0.0)"/></marker><marker id="ProcessOnMarker1115" markerUnits="userSpaceOnUse" orient="auto" markerWidth="16.23606797749979" markerHeight="10.550836550532098" viewBox="-1.0 -1.3763819204711736 16.23606797749979 10.550836550532098" refX="-1.0" refY="3.8990363547948754"><path id="ProcessOnPath1116" d="M12.0 3.8990363547948754L0.0 7.798072709589751V0.0Z" stroke="#323232" stroke-width="2.0" fill="#323232" transform="matrix(1.0,0.0,0.0,1.0,0.0,0.0)"/></marker><marker id="ProcessOnMarker1119" markerUnits="userSpaceOnUse" orient="auto" markerWidth="16.23606797749979" markerHeight="10.550836550532098" viewBox="-1.0 -1.3763819204711736 16.23606797749979 10.550836550532098" refX="-1.0" refY="3.8990363547948754"><path id="ProcessOnPath1120" d="M12.0 3.8990363547948754L0.0 7.798072709589751V0.0Z" stroke="#323232" stroke-width="2.0" fill="#323232" transform="matrix(1.0,0.0,0.0,1.0,0.0,0.0)"/></marker><marker id="ProcessOnMarker1123" markerUnits="userSpaceOnUse" orient="auto" markerWidth="16.23606797749979" markerHeight="10.550836550532098" viewBox="-1.0 -1.3763819204711736 16.23606797749979 10.550836550532098" refX="-1.0" refY="3.8990363547948754"><path id="ProcessOnPath1124" d="M12.0 3.8990363547948754L0.0 7.798072709589751V0.0Z" stroke="#323232" stroke-width="2.0" fill="#323232" transform="matrix(1.0,0.0,0.0,1.0,0.0,0.0)"/></marker><marker id="ProcessOnMarker1129" markerUnits="userSpaceOnUse" orient="auto" markerWidth="16.23606797749979" markerHeight="10.550836550532098" viewBox="-1.0 -1.3763819204711736 16.23606797749979 10.550836550532098" refX="-1.0" refY="3.8990363547948754"><path id="ProcessOnPath1130" d="M12.0 3.8990363547948754L0.0 7.798072709589751V0.0Z" stroke="#323232" stroke-width="2.0" fill="#323232" transform="matrix(1.0,0.0,0.0,1.0,0.0,0.0)"/></marker></defs><g id="ProcessOnG1002"><path id="ProcessOnPath1003" d="M75.0 77.0H780.5V728.5H75.0V77.0Z" fill="none"/><g id="ProcessOnG1004"><g id="ProcessOnG1005" transform="matrix(1.0,0.0,0.0,1.0,295.0,97.0)" opacity="1.0"><path id="ProcessOnPath1006" d="M0.0 0.0L229.0 0.0L229.0 36.0L0.0 36.0Z" stroke="#323232" stroke-width="2.0" stroke-dasharray="none" opacity="1.0" fill="#00ff00"/><g id="ProcessOnG1007" transform="matrix(1.0,0.0,0.0,1.0,10.0,1.75)"><text id="ProcessOnText1008" fill="#ff3333" font-size="13" x="103.5" y="13.325" font-family="微软雅黑" font-weight="bold" font-style="normal" text-decoration="none" family="微软雅黑" text-anchor="middle" size="13">BW、ONN、AW、CA、MSB、M</text><text id="ProcessOnText1009" fill="#ff3333" font-size="13" x="103.5" y="29.575" font-family="微软雅黑" font-weight="bold" font-style="normal" text-decoration="none" family="微软雅黑" text-anchor="middle" size="13">OV、SP、PEN、OZ</text></g></g><g id="ProcessOnG1010" transform="matrix(1.0,0.0,0.0,1.0,446.0,162.0)" opacity="1.0"><path id="ProcessOnPath1011" d="M0.0 25.0L25.0 0.0L100.0 0.0L100.0 70.0L0.0 70.0L0.0 25.0Z" stroke="#323232" stroke-width="2.0" stroke-dasharray="none" opacity="1.0" fill="#ccccff"/><g id="ProcessOnG1012" transform="matrix(1.0,0.0,0.0,1.0,10.0,26.875)"><text id="ProcessOnText1013" fill="#000000" font-size="13" x="39.0" y="13.325" font-family="微软雅黑" font-weight="normal" font-style="normal" text-decoration="none" family="微软雅黑" text-anchor="middle" size="13">Marika</text></g></g><g id="ProcessOnG1014" transform="matrix(1.0,0.0,0.0,1.0,446.0,289.6666666666667)" opacity="1.0"><path id="ProcessOnPath1015" d="M0.0 16.666666666666668L100.0 0.0L100.0 70.0L0.0 70.0L0.0 16.666666666666668Z" stroke="#323232" stroke-width="2.0" stroke-dasharray="none" opacity="1.0" fill="#ffccff"/><g id="ProcessOnG1016" transform="matrix(1.0,0.0,0.0,1.0,0.0,30.375)"><text id="ProcessOnText1017" fill="#000000" font-size="13" x="49.0" y="13.325" font-family="微软雅黑" font-weight="normal" font-style="normal" text-decoration="none" family="微软雅黑" text-anchor="middle" size="13">Louise</text></g></g><g id="ProcessOnG1018" transform="matrix(1.0,0.0,0.0,1.0,264.5,378.0)" opacity="1.0"><path id="ProcessOnPath1019" d="M0.0 38.5L19.5 0.0L97.5 0.0L117.0 38.5L97.5 77.0L19.5 77.0L0.0 38.5Z" stroke="#323232" stroke-width="2.0" stroke-dasharray="none" opacity="1.0" fill="#00ffff"/><g id="ProcessOnG1020" transform="matrix(1.0,0.0,0.0,1.0,10.0,30.375)"><text id="ProcessOnText1021" fill="#000000" font-size="13" x="47.5" y="13.325" font-family="微软雅黑" font-weight="normal" font-style="normal" text-decoration="none" family="微软雅黑" text-anchor="middle" size="13">to设计准备初稿</text></g></g><g id="ProcessOnG1022"><path id="ProcessOnPath1023" d="M322.26146722824296 243.01141590572476L322.26146722824296 308.0057079528624L322.26146722824296 308.0057079528624L322.26146722824296 357.7639320225002" stroke="#323232" stroke-width="2.0" stroke-dasharray="none" fill="none" marker-end="url(#ProcessOnMarker1024)"/></g><g id="ProcessOnG1026"><path id="ProcessOnPath1027" d="M381.5 416.5L418.75 416.5L418.75 416.5L440.7639320225002 416.5" stroke="#323232" stroke-width="2.0" stroke-dasharray="none" fill="none" marker-end="url(#ProcessOnMarker1028)"/></g><g id="ProcessOnG1030" transform="matrix(1.0,0.0,0.0,1.0,456.0,393.0)" opacity="1.0"><path id="ProcessOnPath1031" d="M0.0 0.0L220.0 0.0L220.0 47.0L0.0 47.0Z" stroke="#323232" stroke-width="2.0" stroke-dasharray="none" opacity="1.0" fill="#ff66ff"/><g id="ProcessOnG1032" transform="matrix(1.0,0.0,0.0,1.0,10.0,7.25)"><text id="ProcessOnText1033" fill="#ffffff" font-size="13" x="99.0" y="13.325" font-family="微软雅黑" font-weight="bold" font-style="normal" text-decoration="none" family="微软雅黑" text-anchor="middle" size="13">业务：PHQ传给rosemary+Louis</text><text id="ProcessOnText1034" fill="#ffffff" font-size="13" x="99.0" y="29.575" font-family="微软雅黑" font-weight="bold" font-style="normal" text-decoration="none" family="微软雅黑" text-anchor="middle" size="13">e</text></g></g><g id="ProcessOnG1035"><path id="ProcessOnPath1036" d="M566.0 440.0L566.0 471.0L566.0 471.0L566.0 486.7639320225002" stroke="#323232" stroke-width="2.0" stroke-dasharray="none" fill="none" marker-end="url(#ProcessOnMarker1037)"/></g><g id="ProcessOnG1039" transform="matrix(1.0,0.0,0.0,1.0,516.0,502.0)" opacity="1.0"><path id="ProcessOnPath1040" d="M0.0 35.0L16.666666666666668 0.0L83.33333333333333 0.0L100.0 35.0L83.33333333333333 70.0L16.666666666666668 70.0L0.0 35.0Z" stroke="#323232" stroke-width="2.0" stroke-dasharray="none" opacity="1.0" fill="#ff3399"/><g id="ProcessOnG1041" transform="matrix(1.0,0.0,0.0,1.0,10.0,18.75)"><text id="ProcessOnText1042" fill="#ffffff" font-size="13" x="39.0" y="13.325" font-family="微软雅黑" font-weight="bold" font-style="normal" text-decoration="none" family="微软雅黑" text-anchor="middle" size="13">PS PD CM</text><text id="ProcessOnText1043" fill="#ffffff" font-size="13" x="39.0" y="29.575" font-family="微软雅黑" font-weight="bold" font-style="normal" text-decoration="none" family="微软雅黑" text-anchor="middle" size="13">Supplier</text></g></g><g id="ProcessOnG1044"><path id="ProcessOnPath1045" d="M516.0 537.0L435.0 537.0L435.0 537.0L369.2360679774998 537.0" stroke="#323232" stroke-width="2.0" stroke-dasharray="none" fill="none" marker-end="url(#ProcessOnMarker1046)"/><g id="ProcessOnG1048" transform="matrix(1.0,0.0,0.0,1.0,442.61803398874986,528.875)"><path id="ProcessOnPath1049" d="M0 0H32.0V16.25H0Z" fill="#fff" transform="matrix(1.0,0.0,0.0,1.0,-16.0,0.0)"/><text id="ProcessOnText1050" fill="#000000" font-size="13" x="0.0" y="13.325" font-family="微软雅黑" font-weight="normal" font-style="normal" text-decoration="none" family="微软雅黑" text-anchor="middle" size="13">都OK</text></g></g><g id="ProcessOnG1051" transform="matrix(1.0,0.0,0.0,1.0,284.0,507.0)" opacity="1.0"><path id="ProcessOnPath1052" d="M0.0 0.0L70.0 0.0L70.0 40.0L35.0 60.0L0.0 40.0L0.0 0.0Z" stroke="#323232" stroke-width="2.0" stroke-dasharray="none" opacity="1.0" fill="#e6ffcc"/><g id="ProcessOnG1053" transform="matrix(1.0,0.0,0.0,1.0,0.0,11.875)"><text id="ProcessOnText1054" fill="#000000" font-size="13" x="34.0" y="13.325" font-family="微软雅黑" font-weight="normal" font-style="normal" text-decoration="none" family="微软雅黑" text-anchor="middle" size="13">送翻译</text></g></g><g id="ProcessOnG1055"><path id="ProcessOnPath1056" d="M319.0 567.0L319.0 608.5L319.0 608.5L319.0 634.7639320225002" stroke="#323232" stroke-width="2.0" stroke-dasharray="none" fill="none" marker-end="url(#ProcessOnMarker1057)"/></g><g id="ProcessOnG1059" transform="matrix(1.0,0.0,0.0,1.0,146.75,650.0)" opacity="1.0"><path id="ProcessOnPath1060" d="M0.0 0.0L344.5 0.0L344.5 47.0L0.0 47.0Z" stroke="#323232" stroke-width="2.0" stroke-dasharray="none" opacity="1.0" fill="#ff3399"/><g id="ProcessOnG1061" transform="matrix(1.0,0.0,0.0,1.0,10.0,15.375)"><text id="ProcessOnText1062" fill="#ffffff" font-size="13" x="161.25" y="13.325" font-family="微软雅黑" font-weight="bold" font-style="normal" text-decoration="none" family="微软雅黑" text-anchor="middle" size="13">PS、客人（CM，CM根据系列看有没有需要)最后确认</text></g></g><g id="ProcessOnG1063" transform="matrix(1.0,0.0,0.0,1.0,568.0,638.5)" opacity="1.0"><path id="ProcessOnPath1064" d="M0.0 35.0C0.0 -11.666666666666666 70.0 -11.666666666666666 70.0 35.0C70.0 81.66666666666667 0.0 81.66666666666667 0.0 35.0Z" stroke="#323232" stroke-width="2.0" stroke-dasharray="none" opacity="1.0" fill="#ff0000"/><g id="ProcessOnG1065" transform="matrix(1.0,0.0,0.0,1.0,10.0,26.875)"><text id="ProcessOnText1066" fill="#ffffff" font-size="13" x="24.0" y="13.325" font-family="微软雅黑" font-weight="bold" font-style="normal" text-decoration="none" family="微软雅黑" text-anchor="middle" size="13">最终稿</text></g></g><g id="ProcessOnG1067"><path id="ProcessOnPath1068" d="M491.25 673.5L529.625 673.5L529.625 673.5L552.7639320225002 673.5" stroke="#323232" stroke-width="2.0" stroke-dasharray="none" fill="none" marker-end="url(#ProcessOnMarker1069)"/><g id="ProcessOnG1071" transform="matrix(1.0,0.0,0.0,1.0,522.0069660112501,665.375)"><path id="ProcessOnPath1072" d="M0 0H15.0V16.25H0Z" fill="#fff" transform="matrix(1.0,0.0,0.0,1.0,-7.5,0.0)"/><text id="ProcessOnText1073" fill="#000000" font-size="13" x="0.0" y="13.325" font-family="微软雅黑" font-weight="normal" font-style="normal" text-decoration="none" family="微软雅黑" text-anchor="middle" size="13">ok</text></g></g><g id="ProcessOnG1074" transform="matrix(1.0,0.0,0.0,1.0,273.0,162.0)" opacity="1.0"><path id="ProcessOnPath1075" d="M0.0 35.0L16.666666666666668 0.0L83.33333333333333 0.0L100.0 35.0L83.33333333333333 70.0L16.666666666666668 70.0L0.0 35.0Z" stroke="#323232" stroke-width="2.0" stroke-dasharray="none" opacity="1.0" fill="#ffe6cc"/><g id="ProcessOnG1076" transform="matrix(1.0,0.0,0.0,1.0,10.0,26.875)"><text id="ProcessOnText1077" fill="#000000" font-size="13" x="39.0" y="13.325" font-family="微软雅黑" font-weight="normal" font-style="normal" text-decoration="none" family="微软雅黑" text-anchor="middle" size="13">客人提供PF</text></g></g><g id="ProcessOnG1078"><path id="ProcessOnPath1079" d="M446.0 324.6666666666667L385.0 324.6666666666667L385.0 324.6666666666667L339.2360679774998 324.6666666666667" stroke="#323232" stroke-width="2.0" stroke-dasharray="none" fill="none" marker-end="url(#ProcessOnMarker1080)"/><g id="ProcessOnG1082" transform="matrix(1.0,0.0,0.0,1.0,392.61803398874986,316.5416666666667)"><path id="ProcessOnPath1083" d="M0 0H80.0V16.25H0Z" fill="#fff" transform="matrix(1.0,0.0,0.0,1.0,-40.0,0.0)"/><text id="ProcessOnText1084" fill="#000000" font-size="13" x="0.0" y="13.325" font-family="微软雅黑" font-weight="normal" font-style="normal" text-decoration="none" family="微软雅黑" text-anchor="middle" size="13">PF上加修改点</text></g></g><g id="ProcessOnG1085" transform="matrix(1.0,0.0,0.0,1.0,381.5,455.0)" opacity="1.0"><path id="ProcessOnPath1086" d="M0.0 0.0L204.0 0.0L204.0 31.0L0.0 31.0Z" stroke="none" stroke-width="0.0" stroke-dasharray="none" opacity="1.0" fill="none"/><g id="ProcessOnG1087" transform="matrix(1.0,0.0,0.0,1.0,0.0,7.375)"><text id="ProcessOnText1088" fill="#3333ff" font-size="13" x="101.0" y="13.325" font-family="微软雅黑" font-weight="bold" font-style="normal" text-decoration="none" family="微软雅黑" text-anchor="middle" size="13">ps确认，不用再加louise了</text></g></g><g id="ProcessOnG1089" transform="matrix(0.9961946980917455,0.08715574274765817,-0.08715574274765817,0.9961946980917455,623.7455894262196,467.98283773696625)" opacity="1.0"><path id="ProcessOnPath1090" d="M0.0 18.49882554185254C0.0 -6.166275180617514 47.95793666779889 -6.166275180617514 47.95793666779889 18.49882554185254C47.95793666779889 43.16392626432259 0.0 43.16392626432259 0.0 18.49882554185254Z" stroke="#323232" stroke-width="2.0" stroke-dasharray="none" opacity="1.0" fill="#00ffff"/><g id="ProcessOnG1091" transform="matrix(1.0,0.0,0.0,1.0,10.0,2.24882554185254)"><text id="ProcessOnText1092" fill="#000000" font-size="13" x="12.978968333899445" y="13.325" font-family="微软雅黑" font-weight="normal" font-style="normal" text-decoration="none" family="微软雅黑" text-anchor="middle" size="13">修</text><text id="ProcessOnText1093" fill="#000000" font-size="13" x="12.978968333899445" y="29.575" font-family="微软雅黑" font-weight="normal" font-style="normal" text-decoration="none" family="微软雅黑" text-anchor="middle" size="13">改</text></g></g><g id="ProcessOnG1094"><path id="ProcessOnPath1095" d="M622.13331054616 486.41126966268394L605.0 486.41126966268394L605.0 455.2360679774998" stroke="#323232" stroke-width="2.0" stroke-dasharray="none" fill="none" marker-end="url(#ProcessOnMarker1096)"/></g><g id="ProcessOnG1098"><path id="ProcessOnPath1099" d="M676.0 416.5L706.0 416.5L706.0 490.5910792536111L685.1448207635409 490.5910792536111" stroke="#323232" stroke-width="2.0" stroke-dasharray="none" fill="none" marker-end="url(#ProcessOnMarker1100)"/><g id="ProcessOnG1102" transform="matrix(1.0,0.0,0.0,1.0,706.0,440.8481292450351)"><path id="ProcessOnPath1103" d="M0 0H109.0V16.25H0Z" fill="#fff" transform="matrix(1.0,0.0,0.0,1.0,-54.5,0.0)"/><text id="ProcessOnText1104" fill="#0000ff" font-size="13" x="0.0" y="13.325" font-family="微软雅黑" font-weight="bold" font-style="normal" text-decoration="none" family="微软雅黑" text-anchor="middle" size="13">Rosemary 不确认</text></g></g><g id="ProcessOnG1105"><path id="ProcessOnPath1106" d="M409.5 133.0L409.5 163.5L409.5 163.5L409.5 178.7639320225002" stroke="#323232" stroke-width="2.0" stroke-dasharray="none" fill="none" marker-end="url(#ProcessOnMarker1107)"/></g><g id="ProcessOnG1109" transform="matrix(1.0,0.0,0.0,1.0,95.0,256.0)" opacity="1.0"><path id="ProcessOnPath1110" d="M0.0 0.0L181.0 0.0L181.0 60.0L0.0 60.0Z" stroke="#323232" stroke-width="2.0" stroke-dasharray="none" opacity="1.0" fill="#33ff33"/><g id="ProcessOnG1111" transform="matrix(1.0,0.0,0.0,1.0,10.0,21.875)"><text id="ProcessOnText1112" fill="#ff0000" font-size="13" x="79.5" y="13.325" font-family="微软雅黑" font-weight="bold" font-style="normal" text-decoration="none" family="微软雅黑" text-anchor="middle" size="13">HOL HW VAL EA HV STP</text></g></g><g id="ProcessOnG1113"><path id="ProcessOnPath1114" d="M276.0 286.0L297.5 286.0L297.5 286.0L303.7639320225002 286.0" stroke="#323232" stroke-width="2.0" stroke-dasharray="none" fill="none" marker-end="url(#ProcessOnMarker1115)"/></g><g id="ProcessOnG1117"><path id="ProcessOnPath1118" d="M373.0 197.0L409.5 197.0L409.5 197.0L430.7639320225002 197.0" stroke="#323232" stroke-width="2.0" stroke-dasharray="none" fill="none" marker-end="url(#ProcessOnMarker1119)"/></g><g id="ProcessOnG1121"><path id="ProcessOnPath1122" d="M496.0 232.0L496.0 265.0L496.0 265.0L496.0 282.7639320225002" stroke="#323232" stroke-width="2.0" stroke-dasharray="none" fill="none" marker-end="url(#ProcessOnMarker1123)"/></g><g id="ProcessOnG1125" transform="matrix(1.0,0.0,0.0,1.0,482.0,582.0)" opacity="1.0"><path id="ProcessOnPath1126" d="M0.0 0.0L198.0 0.0L198.0 20.0L0.0 20.0Z" stroke="none" stroke-width="0.0" stroke-dasharray="none" opacity="1.0" fill="none"/></g><g id="ProcessOnG1127"><path id="ProcessOnPath1128" d="M616.0 537.0L646.0 537.0L646.0 602.0L566.0 602.0L566.0 587.2360679774998" stroke="#323232" stroke-width="2.0" stroke-dasharray="none" fill="none" marker-end="url(#ProcessOnMarker1129)"/><g id="ProcessOnG1131" transform="matrix(1.0,0.0,0.0,1.0,646.0,590.6319660112501)"><path id="ProcessOnPath1132" d="M0 0H36.0V22.5H0Z" fill="#fff" transform="matrix(1.0,0.0,0.0,1.0,-18.0,0.0)"/><text id="ProcessOnText1133" fill="#99004d" font-size="18" x="0.0" y="18.45" font-family="微软雅黑" font-weight="bold" font-style="normal" text-decoration="none" family="微软雅黑" text-anchor="middle" size="18">修改</text></g></g></g></g></svg>